<?xml version="1.0" standalone="no"?>
<!DOCTYPE svg PUBLIC "-//W3C//DTD SVG 20010904//EN"
 "http://www.w3.org/TR/2001/REC-SVG-20010904/DTD/svg10.dtd">
<svg version="1.0" xmlns="http://www.w3.org/2000/svg"
 width="3500.000000pt" height="1440.000000pt" viewBox="0 0 3500.000000 1440.000000"
 preserveAspectRatio="xMidYMid meet">

<g transform="translate(0.000000,1440.000000) scale(0.100000,-0.100000)"
fill="#000000" stroke="none">
<path d="M10008 12670 c-2 -654 -3 -1234 -3 -1287 l0 -98 420 4 c231 2 421 4
422 5 2 2 11 91 21 199 l18 197 -233 0 -233 0 0 880 0 880 313 0 313 0 13 153
c7 83 15 176 18 205 l6 52 -537 0 -536 0 -2 -1190z"/>
<path d="M18017 11633 c-3 -5 -667 -1716 -1477 -3803 -810 -2087 -1497 -3849
-1526 -3916 -211 -468 -504 -777 -841 -885 l-73 -23 0 -124 0 -124 53 6 c323
38 1659 38 2225 0 l92 -6 0 124 0 125 -115 7 c-63 4 -168 15 -232 26 -419 68
-638 224 -715 507 -27 100 -29 303 -4 443 57 316 148 589 484 1445 l260 660
1508 3 1509 2 390 -1047 c450 -1212 467 -1259 496 -1393 29 -138 24 -291 -11
-365 -76 -158 -263 -232 -690 -274 l-165 -16 -3 -124 -3 -124 68 7 c416 38
2411 38 2801 0 l62 -6 0 125 0 124 -62 7 c-191 22 -382 134 -520 304 -80 100
-115 156 -180 285 -29 59 -746 1891 -1593 4071 l-1540 3965 -97 1 c-53 0 -99
-3 -101 -7z m1036 -5285 c-2 -5 -634 -8 -1405 -8 -1329 0 -1400 1 -1396 18 6
21 1408 3694 1415 3706 6 10 1392 -3706 1386 -3716z"/>
<path d="M22570 11457 l0 -125 98 -6 c160 -11 341 -36 439 -61 279 -71 388
-199 439 -520 17 -104 18 -305 22 -3485 2 -2368 0 -3415 -8 -3510 -14 -174
-44 -319 -81 -398 -42 -86 -135 -184 -213 -222 -107 -53 -280 -87 -558 -111
l-138 -12 0 -125 0 -124 63 6 c307 30 2150 39 2892 14 795 -26 1147 -15 1510
47 838 144 1541 578 1894 1166 317 531 399 1265 206 1855 -126 386 -407 766
-745 1008 -357 256 -922 454 -1577 552 -76 11 -113 21 -113 29 0 8 53 31 128
55 552 182 989 451 1263 778 373 445 543 984 489 1543 -24 241 -75 423 -180
634 -87 176 -190 314 -342 460 -361 347 -838 549 -1488 630 -279 34 -486 38
-1235 24 -1177 -22 -2525 -13 -2727 17 l-38 6 0 -125z m3490 -152 c646 -89
1026 -383 1211 -936 94 -281 138 -630 125 -999 -13 -398 -70 -695 -186 -982
-221 -544 -572 -809 -1204 -910 -119 -19 -183 -22 -704 -25 l-573 -5 4 1579
c2 1454 4 1586 20 1681 37 215 85 339 165 425 107 113 222 158 477 187 118 13
530 4 665 -15z m155 -4089 c376 -44 626 -110 870 -232 170 -84 292 -173 418
-303 249 -259 396 -580 463 -1016 27 -172 27 -724 1 -900 -156 -1039 -753
-1580 -1879 -1701 -187 -20 -605 -23 -726 -5 -348 51 -510 172 -577 431 -50
191 -48 113 -52 1994 l-4 1758 678 -5 c516 -4 709 -9 808 -21z"/>
<path d="M6340 7815 l-575 -575 346 -346 346 -346 57 228 57 227 -38 41 c-21
23 -71 76 -113 119 l-75 77 191 193 191 192 96 383 c52 210 94 382 93 382 0 0
-260 -259 -576 -575z"/>
<path d="M10011 2578 l1 -533 48 510 c27 281 49 520 49 533 1 20 -4 22 -49 22
l-50 0 1 -532z"/>
</g>
</svg>
